<svg xmlns="http://www.w3.org/2000/svg" viewBox="0 0 192 192" fill="none">
  <rect width="192" height="192" rx="32" fill="url(#gradient)"/>
  <defs>
    <linearGradient id="gradient" x1="0" y1="0" x2="192" y2="192" gradientUnits="userSpaceOnUse">
      <stop stop-color="#7c3aed"/>
      <stop offset="1" stop-color="#db2777"/>
    </linearGradient>
  </defs>
  <path d="M96 40c-30.928 0-56 25.072-56 56s25.072 56 56 56 56-25.072 56-56-25.072-56-56-56zm0 16c22.091 0 40 17.909 40 40s-17.909 40-40 40-40-17.909-40-40 17.909-40 40-40z" fill="white"/>
  <path d="M96 72c-13.255 0-24 10.745-24 24s10.745 24 24 24 24-10.745 24-24-10.745-24-24-24zm0 8c8.837 0 16 7.163 16 16s-7.163 16-16 16-16-7.163-16-16 7.163-16 16-16z" fill="white"/>
  <rect x="88" y="32" width="16" height="24" rx="4" fill="white"/>
  <rect x="88" y="136" width="16" height="24" rx="4" fill="white"/>
  <rect x="32" y="88" width="24" height="16" rx="4" fill="white"/>
  <rect x="136" y="88" width="24" height="16" rx="4" fill="white"/>
</svg>
