<svg xmlns="http://www.w3.org/2000/svg" viewBox="0 0 512 512" fill="none">
  <rect width="512" height="512" rx="64" fill="url(#gradient)"/>
  <defs>
    <linearGradient id="gradient" x1="0" y1="0" x2="512" y2="512" gradientUnits="userSpaceOnUse">
      <stop stop-color="#7c3aed"/>
      <stop offset="1" stop-color="#db2777"/>
    </linearGradient>
  </defs>
  <path d="M256 96c-88.366 0-160 71.634-160 160s71.634 160 160 160 160-71.634 160-160S344.366 96 256 96zm0 48c61.856 0 112 50.144 112 112s-50.144 112-112 112-112-50.144-112-112 50.144-112 112-112z" fill="white"/>
  <path d="M256 192c-35.346 0-64 28.654-64 64s28.654 64 64 64 64-28.654 64-64-28.654-64-64-64zm0 24c22.091 0 40 17.909 40 40s-17.909 40-40 40-40-17.909-40-40 17.909-40 40-40z" fill="white"/>
  <rect x="232" y="64" width="48" height="64" rx="12" fill="white"/>
  <rect x="232" y="384" width="48" height="64" rx="12" fill="white"/>
  <rect x="64" y="232" width="64" height="48" rx="12" fill="white"/>
  <rect x="384" y="232" width="64" height="48" rx="12" fill="white"/>
  <text x="256" y="480" text-anchor="middle" font-family="Arial, sans-serif" font-size="48" font-weight="bold" fill="white">OpenPOS</text>
</svg>
